# xmcd CD database file
#
# Track frame offsets:
#	150
#	38116
#	78161
#	92666
#	98924
#	106510
#	145236
#	178962
#	184720
#	192914
#	201174
#	240880
#	286513
#	294154
#	298535
#	307649
#	314260
#
# Disc length: 4502 seconds
#
# Revision: 0
# Processed by: cddbd v1.5.1PL2 Copyright (c) Steve Scherf et al.
# Submitted via: CDex 1.51
#
DISCID=d7119411
DTITLE=Edoardo Bellotti - Johann Pachelbel-Hexachordum Apollinis 1699
DYEAR=2006
DGENRE=Baroque
TTITLE0=Aria prima
TTITLE1=Aria secunda
TTITLE2=Aria secunda-Fuga I
TTITLE3=Aria secunda-Fuga II
TTITLE4=Aria secunda-Fuga III
TTITLE5=Aria tertia
TTITLE6=Aria quarta
TTITLE7=Aria quarta-Fuga IV
TTITLE8=Aria quarta-Fuga V
TTITLE9=Aria quarta-Fuga VI
TTITLE10=Aria quinta
TTITLE11=Aria sexta
TTITLE12=Aria sexta-Fuga VII
TTITLE13=Aria sexta-Fuga VIII
TTITLE14=Aria sexta-Fuga IX
TTITLE15=Aria sexta-Fuga X
TTITLE16=Ciaccona in d (Andreas Bach Buch)
EXTD=YEAR: 2006
EXTT0=
EXTT1=
EXTT2=
EXTT3=
EXTT4=
EXTT5=
EXTT6=
EXTT7=
EXTT8=
EXTT9=
EXTT10=
EXTT11=
EXTT12=
EXTT13=
EXTT14=
EXTT15=
EXTT16=
PLAYORDER=
